<svg xmlns="http://www.w3.org/2000/svg" version="1.1" xmlns:xlink="http://www.w3.org/1999/xlink" xmlns:svgjs="http://svgjs.com/svgjs" width="1440" height="560" preserveAspectRatio="none" viewBox="0 0 1440 560"><g clip-path="url(&quot;#SvgjsClipPath1008&quot;)" fill="none"><circle r="93.335" cx="-15.73" cy="-45.61" stroke="#36a398" stroke-opacity="0.95" stroke-width="2"></circle><circle r="93.335" cx="288.32" cy="396.26" stroke="#36a398" stroke-opacity="0.95" stroke-width="2"></circle><circle r="93.335" cx="687.24" cy="833.81" stroke="#36a398" stroke-opacity="0.95" stroke-width="2"></circle><circle r="49.14" cx="454.56" cy="280.56" stroke="#36a398" stroke-opacity="0.95" stroke-width="2"></circle><circle r="72.47" cx="930" cy="110.43" stroke="#36a398" stroke-opacity="0.95" stroke-width="2"></circle><circle r="76.78" cx="9.98" cy="493.41" stroke="#36a398" stroke-opacity="0.95" stroke-width="2"></circle><circle r="77.635" cx="969.47" cy="218.95" stroke="#36a398" stroke-opacity="0.95" stroke-width="2"></circle><circle r="75.36" cx="429.48" cy="116.28" stroke="#36a398" stroke-opacity="0.95" stroke-width="2"></circle><circle r="157.6" cx="902.98" cy="289.93" stroke="#36a398" stroke-opacity="0.95" stroke-width="2"></circle><circle r="54.775" cx="168.95" cy="13.27" stroke="#36a398" stroke-opacity="0.95" stroke-width="2"></circle><circle r="172.46" cx="375.63" cy="450.01" stroke="#36a398" stroke-opacity="0.95" stroke-width="2"></circle><circle r="52.3" cx="579.03" cy="355.91" stroke="#36a398" stroke-opacity="0.95" stroke-width="2"></circle><circle r="139.625" cx="871.88" cy="247.59" stroke="#36a398" stroke-opacity="0.95" stroke-width="2"></circle><circle r="54.72" cx="792.59" cy="244.47" stroke="#36a398" stroke-opacity="0.95" stroke-width="2"></circle><circle r="123.54" cx="1117.06" cy="365.63" stroke="#36a398" stroke-opacity="0.95" stroke-width="2"></circle><circle r="98.83" cx="114.92" cy="123.97" stroke="#36a398" stroke-opacity="0.95" stroke-width="2"></circle><circle r="167.325" cx="614.44" cy="393.81" stroke="#36a398" stroke-opacity="0.95" stroke-width="2"></circle><circle r="184.96" cx="1154.19" cy="175" stroke="#36a398" stroke-opacity="0.95" stroke-width="2"></circle><circle r="46.92" cx="115.15" cy="245.53" stroke="#36a398" stroke-opacity="0.95" stroke-width="2"></circle><circle r="184.93" cx="731" cy="173.35" stroke="#36a398" stroke-opacity="0.95" stroke-width="2"></circle><circle r="150.62" cx="61.77" cy="239.08" stroke="#36a398" stroke-opacity="0.95" stroke-width="2"></circle><circle r="76.655" cx="133.14" cy="237.46" stroke="#36a398" stroke-opacity="0.95" stroke-width="2"></circle><circle r="100.72" cx="403.56" cy="44.73" stroke="#36a398" stroke-opacity="0.95" stroke-width="2"></circle><circle r="61.93" cx="207.72" cy="194.9" stroke="#36a398" stroke-opacity="0.95" stroke-width="2"></circle><circle r="73.08" cx="739.49" cy="416.61" stroke="#36a398" stroke-opacity="0.95" stroke-width="2"></circle><circle r="83.905" cx="2.19" cy="111.41" stroke="#36a398" stroke-opacity="0.95" stroke-width="2"></circle><circle r="148.085" cx="219.87" cy="24.11" stroke="#36a398" stroke-opacity="0.95" stroke-width="2"></circle><circle r="139.35" cx="1219.01" cy="373.28" stroke="#36a398" stroke-opacity="0.95" stroke-width="2"></circle><circle r="171.815" cx="36.2" cy="149.74" stroke="#36a398" stroke-opacity="0.95" stroke-width="2"></circle><circle r="49.555" cx="1235.62" cy="318.45" stroke="#36a398" stroke-opacity="0.95" stroke-width="2"></circle></g><defs><clipPath id="SvgjsClipPath1008"><rect width="1440" height="560" x="0" y="0"></rect></clipPath></defs></svg>